<svg id="Capa_1" enable-background="new 0 0 512 512" height="512" viewBox="0 0 512 512" width="512" xmlns="http://www.w3.org/2000/svg"><g><path d="m371.035 425.782c-26.171 0-53.592-4.511-80.496-13.687-3.92-1.337-6.014-5.6-4.677-9.52 1.337-3.919 5.599-6.015 9.52-4.677 30.431 10.379 62.379 14.577 92.398 12.135 30.079-2.446 56.882-11.479 77.512-26.123 20.417-14.491 26.248-42.774 13.277-64.389l-36.773-61.279c-2.131-3.552-.979-8.159 2.572-10.291 3.552-2.131 8.158-.979 10.29 2.572l12.247 20.408 7.079 3.508c4.358 2.159 8.343 1.544 10.918.648 3.294-1.147 6.07-3.404 7.243-5.89 3.267-6.926 4.855-16.703 4.855-29.89 0-20.081-9.761-27.349-18.896-27.456-.066-.001-.132-.001-.198-.001-6.259 0-12.729 3.474-14.843 9.536l8.306 4.047c3.724 1.814 5.271 6.304 3.457 10.027-1.814 3.725-6.303 5.272-10.027 3.457l-33.885-16.51c-10.938-5.328-20.899-1.238-26.574 4.37-5.675 5.607-9.888 15.518-4.692 26.519l33.186 70.267c1.769 3.746.167 8.216-3.579 9.985-3.744 1.77-8.216.167-9.985-3.579l-19.136-40.517c-17.487-9.329-38.573-11.604-53.838-11.783l-72.094 42.942c-3.558 2.122-8.162.954-10.281-2.605-2.12-3.559-.953-8.162 2.605-10.281l73.888-44.011c10.267-6.116 14.145-18.868 9.02-29.664-4.157-8.759-13.433-13.999-23.082-13.043l-11.867 1.178c-3.374.334-6.551-1.634-7.753-4.803-1.557-4.105-5.571-9.482-12.168-12.266-4.567-1.928-9.491-2.237-14.688-.93 2.842 12.754 1.896 27.313-4.439 42.832l27.361-12.655c3.76-1.739 8.216-.101 9.956 3.659 1.739 3.76.101 8.217-3.659 9.956l-61.079 28.25c-6.841 3.164-12.667 8.15-16.851 14.42-3.649 5.469-7.935 16.045-9.279 19.659-1.443 3.883-5.762 5.859-9.642 4.418-3.882-1.442-5.861-5.758-4.419-9.64.221-.597 5.488-14.708 10.862-22.761 5.717-8.57 13.682-15.386 23.032-19.71l11.116-5.141c14.436-21.464 15.97-40.25 11.083-54.761-8.009 5.469-19.124 9.21-29.213 9.409-4.122.054-7.565-3.209-7.646-7.351s3.209-7.565 7.351-7.646c8.896-.176 17.65-4.143 22.429-7.831-2.766-3.682-5.971-6.858-9.395-9.476-2.116-1.618-3.216-4.238-2.888-6.882.756-6.1-.429-10.859-3.339-13.401-2.998-2.62-8.159-3.217-14.157-1.633-3.224.849-6.625-.531-8.343-3.391-3.313-5.519-7.142-10.782-11.38-15.646-2.721-3.123-2.396-7.86.727-10.582 3.122-2.721 7.859-2.396 10.582.727 3.656 4.195 7.044 8.653 10.112 13.302 8.804-1.124 16.594.915 22.33 5.927 5.898 5.154 8.911 12.963 8.677 22.283 6.137 5.352 11.331 11.934 15.091 19.485 10.905-3.114 19.735-1.161 25.543 1.29 7.427 3.134 13.774 8.711 17.785 15.449l6.689-.664c15.928-1.577 31.249 7.074 38.114 21.538 5.656 11.915 4.67 25.275-1.667 35.84 9.249.886 19.354 2.631 29.287 5.818l-4.521-9.574c-7.038-14.901-4.01-32.014 7.713-43.596 11.724-11.582 28.871-14.402 43.687-7.183l12.031 5.862c1.703-4.059 4.377-7.686 7.907-10.638 5.732-4.794 13.114-7.388 20.857-7.294 16.784.196 33.72 13.4 33.72 42.455 0 15.448-2.057 27.318-6.289 36.289-2.873 6.091-8.809 11.196-15.877 13.657-3.589 1.249-7.296 1.788-10.961 1.621l12.559 20.927c16.979 28.294 9.311 65.34-17.457 84.34-27.6 19.588-63.877 29.639-102.941 29.639zm-105.574-24.517c-1.088 0-2.192-.238-3.239-.74-32.59-15.636-61.268-38.07-83.158-65.017h-54.418c-68.73.001-124.646-55.915-124.646-124.645s55.916-124.645 124.646-124.645c25.941 0 50.81 7.895 71.917 22.831 3.381 2.393 4.183 7.073 1.79 10.454-2.392 3.382-7.074 4.182-10.454 1.79-18.56-13.133-40.433-20.075-63.253-20.075-60.459 0-109.646 49.186-109.646 109.645s49.187 109.646 109.646 109.646h58.026c2.302 0 4.477 1.057 5.899 2.868 20.75 26.425 48.462 48.426 80.14 63.624 3.735 1.792 5.31 6.272 3.518 10.006-1.291 2.689-3.973 4.257-6.768 4.258zm-121.989-107.762c-20.8 0-37.722-16.922-37.722-37.722 0-17.185 13.981-31.166 31.166-31.166 4.142 0 7.5 3.358 7.5 7.5s-3.358 7.5-7.5 7.5c-8.914 0-16.166 7.252-16.166 16.166 0 12.529 10.193 22.722 22.722 22.722 8.914 0 16.166-7.252 16.166-16.166 0-4.142 3.358-7.5 7.5-7.5s7.5 3.358 7.5 7.5c-.001 17.185-13.982 31.166-31.166 31.166zm42.287-93.977c-1.5 0-3.01-.142-4.515-.428-4.069-.774-6.74-4.701-5.966-8.77s4.702-6.741 8.77-5.966c2.332.442 4.697-.047 6.66-1.383 1.963-1.335 3.288-3.355 3.732-5.687.773-4.069 4.696-6.743 8.77-5.966 4.069.774 6.74 4.7 5.966 8.77-1.192 6.268-4.754 11.697-10.03 15.286-4.009 2.727-8.643 4.144-13.387 4.144z"/></g></svg>